<?xml version="1.0" standalone="no"?>
<!DOCTYPE svg PUBLIC "-//W3C//DTD SVG 20010904//EN"
 "http://www.w3.org/TR/2001/REC-SVG-20010904/DTD/svg10.dtd">
<svg version="1.0" xmlns="http://www.w3.org/2000/svg"
 width="800.000000pt" height="232.000000pt" viewBox="0 0 800.000000 232.000000"
 preserveAspectRatio="xMidYMid meet">

<g transform="translate(0.000000,232.000000) scale(0.100000,-0.100000)"
fill="#000000" stroke="none">
<path d="M625 2293 c-3 -16 -108 -404 -231 -863 -124 -459 -260 -963 -302
-1120 -42 -157 -80 -286 -84 -288 -4 -2 -8 -8 -8 -13 0 -5 129 -9 310 -9 171
0 310 2 310 4 0 2 75 280 166 617 91 338 190 704 219 814 30 110 95 351 144
535 50 184 91 338 91 343 0 4 -137 7 -304 7 l-304 0 -7 -27z"/>
<path d="M1890 2314 c0 -3 -79 -299 -176 -658 -373 -1383 -444 -1647 -444
-1651 0 -3 137 -5 305 -5 l304 0 11 43 c6 23 146 542 311 1154 164 611 299
1114 299 1117 0 3 -137 6 -305 6 -168 0 -305 -3 -305 -6z"/>
<path d="M2956 1617 c-104 -386 -243 -900 -308 -1142 -65 -242 -121 -448 -124
-457 -5 -17 14 -18 301 -18 236 0 307 3 310 13 14 46 615 2288 615 2296 0 8
-97 11 -302 11 l-303 0 -189 -703z"/>
<path d="M5085 2311 c-6 -5 -188 -123 -405 -261 -217 -138 -396 -256 -398
-261 -2 -5 454 -9 1151 -9 912 0 1157 3 1164 13 9 10 143 500 143 520 0 11
-1644 9 -1655 -2z"/>
<path d="M7333 2127 c-136 -508 -564 -2094 -569 -2109 -5 -17 14 -18 300 -18
281 0 305 1 310 18 9 29 327 1209 471 1747 75 281 140 518 145 527 6 10 10 20
10 23 0 3 -138 5 -307 5 l-308 0 -52 -193z"/>
<path d="M4226 1552 c-2 -4 35 -32 82 -62 48 -30 325 -206 616 -392 l529 -338
426 0 c361 0 423 2 411 14 -8 7 -285 186 -615 397 l-600 384 -422 2 c-232 1
-424 -1 -427 -5z"/>
<path d="M3906 513 c-10 -33 -136 -504 -136 -508 0 -9 1648 -5 1652 4 2 4 179
120 393 256 215 136 394 252 399 256 6 5 -503 9 -1146 9 -1093 0 -1157 -1
-1162 -17z"/>
</g>
</svg>
