<?xml version="1.0" encoding="UTF-8" standalone="no"?>
<svg
   xmlns:dc="http://purl.org/dc/elements/1.1/"
   xmlns:cc="http://creativecommons.org/ns#"
   xmlns:rdf="http://www.w3.org/1999/02/22-rdf-syntax-ns#"
   xmlns:svg="http://www.w3.org/2000/svg"
   xmlns="http://www.w3.org/2000/svg"
   xmlns:sodipodi="http://sodipodi.sourceforge.net/DTD/sodipodi-0.dtd"
   xmlns:inkscape="http://www.inkscape.org/namespaces/inkscape"
   width="65.962952mm"
   height="9.8587275mm"
   viewBox="0 0 65.962952 9.8587275"
   version="1.1"
   id="svg666"
   inkscape:version="1.0.1 (3bc2e813f5, 2020-09-07)"
   sodipodi:docname="packar2.svg">
  <defs
     id="defs660">
    <clipPath
       clipPathUnits="userSpaceOnUse"
       id="clipPath142">
      <path
         d="M 9.454,626.12 H 243.499 V 841.89 H 9.454 Z"
         id="path140" />
    </clipPath>
    <clipPath
       clipPathUnits="userSpaceOnUse"
       id="clipPath154">
      <path
         d="M 9.454,626.12 H 243.499 V 841.89 H 9.454 Z"
         id="path152" />
    </clipPath>
    <clipPath
       clipPathUnits="userSpaceOnUse"
       id="clipPath166">
      <path
         d="M 9.454,626.12 H 243.499 V 841.89 H 9.454 Z"
         id="path164" />
    </clipPath>
    <clipPath
       clipPathUnits="userSpaceOnUse"
       id="clipPath178">
      <path
         d="M 9.454,626.12 H 243.499 V 841.89 H 9.454 Z"
         id="path176" />
    </clipPath>
    <clipPath
       clipPathUnits="userSpaceOnUse"
       id="clipPath190">
      <path
         d="M 9.454,626.12 H 243.499 V 841.89 H 9.454 Z"
         id="path188" />
    </clipPath>
    <clipPath
       clipPathUnits="userSpaceOnUse"
       id="clipPath202">
      <path
         d="M 9.454,626.12 H 243.499 V 841.89 H 9.454 Z"
         id="path200" />
    </clipPath>
    <clipPath
       clipPathUnits="userSpaceOnUse"
       id="clipPath214">
      <path
         d="M 9.454,626.12 H 243.499 V 841.89 H 9.454 Z"
         id="path212" />
    </clipPath>
    <clipPath
       clipPathUnits="userSpaceOnUse"
       id="clipPath226">
      <path
         d="M 9.454,626.12 H 243.499 V 841.89 H 9.454 Z"
         id="path224" />
    </clipPath>
    <clipPath
       clipPathUnits="userSpaceOnUse"
       id="clipPath238">
      <path
         d="M 9.454,626.12 H 243.499 V 841.89 H 9.454 Z"
         id="path236" />
    </clipPath>
    <clipPath
       clipPathUnits="userSpaceOnUse"
       id="clipPath250">
      <path
         d="M 9.454,626.12 H 243.499 V 841.89 H 9.454 Z"
         id="path248" />
    </clipPath>
    <clipPath
       clipPathUnits="userSpaceOnUse"
       id="clipPath262">
      <path
         d="M 9.454,626.12 H 243.499 V 841.89 H 9.454 Z"
         id="path260" />
    </clipPath>
    <clipPath
       clipPathUnits="userSpaceOnUse"
       id="clipPath274">
      <path
         d="M 9.454,626.12 H 243.499 V 841.89 H 9.454 Z"
         id="path272" />
    </clipPath>
    <clipPath
       clipPathUnits="userSpaceOnUse"
       id="clipPath286">
      <path
         d="M 9.454,626.12 H 243.499 V 841.89 H 9.454 Z"
         id="path284" />
    </clipPath>
    <clipPath
       clipPathUnits="userSpaceOnUse"
       id="clipPath298">
      <path
         d="M 9.454,626.12 H 243.499 V 841.89 H 9.454 Z"
         id="path296" />
    </clipPath>
  </defs>
  <sodipodi:namedview
     id="base"
     pagecolor="#ffffff"
     bordercolor="#666666"
     borderopacity="1.0"
     inkscape:pageopacity="0.0"
     inkscape:pageshadow="2"
     inkscape:zoom="2.8"
     inkscape:cx="123.5733"
     inkscape:cy="38.482552"
     inkscape:document-units="mm"
     inkscape:current-layer="layer1"
     inkscape:document-rotation="0"
     showgrid="false"
     fit-margin-top="0"
     fit-margin-left="0"
     fit-margin-right="0"
     fit-margin-bottom="0"
     inkscape:window-width="1280"
     inkscape:window-height="967"
     inkscape:window-x="0"
     inkscape:window-y="0"
     inkscape:window-maximized="0" />
  <metadata
     id="metadata663">
    <rdf:RDF>
      <cc:Work
         rdf:about="">
        <dc:format>image/svg+xml</dc:format>
        <dc:type
           rdf:resource="http://purl.org/dc/dcmitype/StillImage" />
        <dc:title></dc:title>
      </cc:Work>
    </rdf:RDF>
  </metadata>
  <g
     inkscape:label="Calque 1"
     inkscape:groupmode="layer"
     id="layer1"
     transform="translate(55.660045,-11.701589)">
    <g
       id="g136"
       transform="matrix(0.35277777,0,0,-0.35277777,-68.912569,293.88024)">
      <g
         id="g138"
         clip-path="url(#clipPath142)">
        <g
           id="g144"
           transform="translate(61.460602,797.52451)">
          <path
             d="m 0,0 h 0.019 c -0.239,-0.01 -0.482,-0.034 -0.723,-0.075 -0.265,-0.045 -0.552,-0.107 -0.852,-0.187 -0.286,-0.075 -0.612,-0.174 -0.995,-0.3 -0.362,-0.125 -0.731,-0.264 -1.126,-0.425 -0.367,-0.15 -0.663,-0.283 -0.905,-0.405 -0.251,-0.126 -0.466,-0.251 -0.643,-0.375 -0.159,-0.109 -0.279,-0.211 -0.358,-0.305 -0.076,-0.092 -0.084,-0.138 -0.085,-0.143 -0.003,-0.019 -0.008,-0.045 0.026,-0.109 0.03,-0.057 0.097,-0.156 0.246,-0.296 0.136,-0.126 0.319,-0.262 0.546,-0.405 0.227,-0.146 0.51,-0.305 0.867,-0.485 l 0.048,-0.023 0.043,-0.022 0.02,-0.008 c 0.345,-0.174 0.684,-0.328 1.014,-0.459 0.333,-0.128 0.65,-0.236 0.969,-0.328 0.3,-0.086 0.605,-0.153 0.91,-0.2 0.3,-0.046 0.586,-0.072 0.847,-0.075 h 0.075 c 0.249,0 0.508,0.018 0.771,0.052 0.295,0.037 0.606,0.097 0.927,0.179 0.298,0.075 0.621,0.174 0.987,0.307 0.312,0.112 0.65,0.252 1.034,0.426 0.425,0.2 0.774,0.373 1.066,0.536 0.306,0.168 0.543,0.317 0.726,0.454 0.175,0.129 0.305,0.247 0.388,0.348 0.062,0.08 0.07,0.119 0.07,0.119 0,-0.002 0,-0.002 -0.001,-0.002 -0.005,0 -0.019,0.034 -0.057,0.084 -0.073,0.098 -0.203,0.215 -0.365,0.33 -0.203,0.141 -0.446,0.283 -0.72,0.423 -0.285,0.15 -0.63,0.308 -1.028,0.473 C 3.324,-0.727 2.957,-0.59 2.622,-0.479 2.302,-0.372 1.969,-0.276 1.63,-0.192 1.305,-0.117 1.022,-0.067 0.77,-0.039 0.557,-0.013 0.343,0 0.128,0 Z m 14.183,-5.821 h 0.012 C 13.925,-5.828 13.651,-5.857 13.36,-5.913 13.065,-5.966 12.748,-6.047 12.414,-6.154 12.078,-6.262 11.719,-6.396 11.351,-6.554 10.96,-6.726 10.562,-6.917 10.163,-7.124 9.816,-7.309 9.506,-7.493 9.246,-7.669 9.014,-7.828 8.806,-7.996 8.631,-8.169 8.499,-8.309 8.4,-8.446 8.351,-8.562 8.306,-8.663 8.292,-8.746 8.305,-8.827 c 0.017,-0.098 0.071,-0.208 0.166,-0.334 0.114,-0.158 0.282,-0.327 0.517,-0.522 0.254,-0.203 0.559,-0.413 0.902,-0.621 0.412,-0.247 0.851,-0.487 1.305,-0.712 l 0.049,-0.025 0.033,-0.016 0.048,-0.024 0.042,-0.021 c 0.491,-0.246 0.986,-0.472 1.471,-0.671 0.473,-0.197 0.934,-0.364 1.37,-0.497 0.441,-0.134 0.861,-0.237 1.247,-0.307 0.396,-0.073 0.766,-0.113 1.099,-0.12 0.07,-0.004 0.118,-0.004 0.165,-0.004 0.282,0 0.577,0.021 0.875,0.062 0.344,0.052 0.699,0.133 1.057,0.242 0.363,0.114 0.722,0.256 1.065,0.42 0.35,0.164 0.709,0.362 1.07,0.591 0.426,0.272 0.769,0.515 1.047,0.741 0.283,0.223 0.505,0.432 0.664,0.621 0.148,0.171 0.243,0.323 0.289,0.456 0.032,0.095 0.038,0.173 0.018,0.247 -0.014,0.039 -0.066,0.163 -0.258,0.356 -0.167,0.165 -0.4,0.342 -0.709,0.543 -0.316,0.199 -0.694,0.409 -1.123,0.622 -0.455,0.226 -0.962,0.455 -1.506,0.679 -0.564,0.233 -1.094,0.436 -1.576,0.601 -0.515,0.175 -0.957,0.309 -1.35,0.407 -0.417,0.106 -0.803,0.184 -1.145,0.232 -0.294,0.04 -0.578,0.06 -0.845,0.06 z m -11.109,-6.01 c -0.256,0 -0.537,-0.021 -0.859,-0.063 -0.34,-0.047 -0.687,-0.122 -1.062,-0.229 -0.376,-0.108 -0.768,-0.243 -1.164,-0.402 -0.414,-0.175 -0.838,-0.375 -1.257,-0.594 -0.508,-0.266 -0.968,-0.528 -1.368,-0.778 -0.42,-0.265 -0.749,-0.496 -1.005,-0.706 -0.266,-0.215 -0.477,-0.42 -0.629,-0.612 -0.125,-0.16 -0.203,-0.306 -0.23,-0.434 -0.026,-0.129 -0.01,-0.272 0.051,-0.434 0.072,-0.196 0.209,-0.413 0.418,-0.665 0.227,-0.269 0.525,-0.557 0.882,-0.853 0.387,-0.321 0.848,-0.662 1.371,-1.014 0.543,-0.361 1.077,-0.686 1.589,-0.966 0.538,-0.286 1.024,-0.515 1.488,-0.698 0.474,-0.188 0.931,-0.329 1.355,-0.416 0.41,-0.091 0.806,-0.136 1.178,-0.136 0.371,0.006 0.738,0.049 1.121,0.136 0.398,0.086 0.828,0.218 1.281,0.393 0.436,0.168 0.913,0.385 1.416,0.647 0.489,0.256 0.991,0.548 1.532,0.892 0.443,0.28 0.824,0.554 1.131,0.815 0.293,0.24 0.538,0.485 0.729,0.729 0.164,0.208 0.276,0.409 0.336,0.597 0.046,0.161 0.056,0.314 0.026,0.461 -0.031,0.148 -0.113,0.317 -0.252,0.511 -0.147,0.203 -0.355,0.421 -0.617,0.646 -0.285,0.243 -0.622,0.487 -0.997,0.73 -0.389,0.251 -0.829,0.507 -1.343,0.784 l -0.074,0.036 -0.054,0.028 -0.064,0.037 c -0.514,0.27 -0.974,0.493 -1.397,0.674 -0.446,0.196 -0.859,0.355 -1.267,0.484 -0.384,0.124 -0.764,0.22 -1.13,0.288 -0.354,0.065 -0.692,0.101 -1.006,0.108 -0.057,0.002 -0.092,0.004 -0.129,0.004 m 2.072,-13.763 c -0.8,0 -1.624,0.082 -2.446,0.242 -0.887,0.169 -1.819,0.437 -2.769,0.799 -0.904,0.346 -1.842,0.79 -2.787,1.318 -0.902,0.503 -1.814,1.088 -2.715,1.74 l -0.019,0.009 -0.022,0.011 -0.037,0.024 c -1.539,1.166 -6.526,5.035 -6.56,6.305 -0.01,0.384 -0.021,0.818 6.278,4.136 2.762,1.454 5.571,2.841 6.007,3.056 l 0.015,0.014 0.023,0.021 0.025,0.022 0.028,0.014 0.028,0.013 0.578,0.286 C 0.667,-7.586 0.562,-7.587 0.458,-7.587 L 0.325,-7.586 0.2,-7.585 c -1.187,0.024 -2.37,0.191 -3.519,0.496 -1.082,0.289 -2.106,0.832 -3.095,1.356 l -0.194,0.104 c -0.025,0.013 -0.255,0.136 -0.431,0.229 l -0.2,0.107 c -0.371,0.196 -0.702,0.39 -0.987,0.577 -0.914,0.715 -1.659,0.862 -2.127,0.862 -0.416,0 -0.65,-0.107 -0.66,-0.111 l -8.689,-3.414 c -0.285,-0.116 -0.564,-0.206 -0.852,-0.275 -0.271,-0.064 -0.538,-0.099 -0.793,-0.105 -0.285,0 -0.518,0.029 -0.739,0.087 -0.249,0.073 -0.464,0.175 -0.644,0.302 l -0.885,0.619 c -0.104,0.069 -0.184,0.164 -0.229,0.269 -0.068,0.14 -0.068,0.304 0.005,0.453 0.06,0.137 0.176,0.221 0.227,0.256 0.07,0.047 0.145,0.087 0.241,0.126 l 10.797,4.192 0.888,0.345 5.241,2.028 c 0.65,0.255 1.181,0.447 1.724,0.622 0.514,0.166 1.004,0.305 1.454,0.416 0.452,0.112 0.901,0.201 1.332,0.265 0.428,0.066 0.826,0.105 1.214,0.121 0.148,0.007 0.301,0.01 0.455,0.01 0.332,0 0.691,-0.017 1.097,-0.051 C 1.353,2.256 1.904,2.176 2.474,2.063 3.029,1.949 3.605,1.8 4.236,1.609 4.816,1.435 5.441,1.217 6.144,0.943 7.014,0.6 7.629,0.332 8.199,0.048 8.733,-0.225 9.19,-0.496 9.558,-0.759 c 0.404,-0.301 0.697,-0.583 0.9,-0.866 0.239,-0.334 0.358,-0.676 0.355,-1.017 -0.003,-0.188 -0.048,-0.378 -0.134,-0.567 0.198,0.044 0.393,0.083 0.585,0.117 0.489,0.08 0.965,0.129 1.418,0.145 0.143,0.006 0.286,0.008 0.433,0.008 0.461,0 0.95,-0.026 1.454,-0.08 0.67,-0.071 1.369,-0.189 2.083,-0.346 0.723,-0.16 1.482,-0.364 2.319,-0.627 0.805,-0.254 1.663,-0.561 2.622,-0.938 1.284,-0.506 2.157,-0.879 2.919,-1.25 0.779,-0.376 1.459,-0.751 2.026,-1.114 0.587,-0.38 1.074,-0.764 1.449,-1.142 0.406,-0.415 0.673,-0.815 0.82,-1.224 0.124,-0.345 0.147,-0.711 0.067,-1.086 -0.073,-0.355 -0.238,-0.724 -0.492,-1.099 -0.252,-0.36 -0.588,-0.735 -1.002,-1.117 -0.434,-0.394 -0.947,-0.793 -1.526,-1.189 -0.622,-0.43 -1.298,-0.808 -2.01,-1.122 -0.707,-0.312 -1.461,-0.564 -2.24,-0.746 -0.8,-0.183 -1.616,-0.296 -2.429,-0.336 -0.258,-0.014 -0.528,-0.021 -0.8,-0.021 -0.336,0 -0.663,0.01 -0.991,0.03 0.094,-0.301 0.15,-0.605 0.165,-0.904 0.027,-0.569 -0.087,-1.141 -0.334,-1.699 -0.248,-0.56 -0.636,-1.118 -1.152,-1.661 -0.517,-0.552 -1.176,-1.101 -1.957,-1.636 -0.756,-0.523 -1.515,-0.99 -2.252,-1.394 -0.759,-0.411 -1.511,-0.764 -2.236,-1.044 -0.745,-0.287 -1.473,-0.509 -2.166,-0.657 -0.701,-0.152 -1.398,-0.236 -2.069,-0.248 -0.071,-0.002 -0.155,-0.005 -0.237,-0.005"
             style="fill:#e1261d;fill-opacity:1;fill-rule:nonzero;stroke:none"
             id="path146" />
        </g>
      </g>
    </g>
    <g
       id="g148"
       transform="matrix(0.35277777,0,0,-0.35277777,-68.912569,293.88024)">
      <g
         id="g150"
         clip-path="url(#clipPath154)">
        <g
           id="g156"
           transform="translate(135.6637,780.78191)">
          <path
             d="m 0,0 c 0,-0.193 -0.101,-0.289 -0.296,-0.289 h -2.159 c -0.22,0 -0.325,0.096 -0.325,0.289 v 14.984 c 0,0.759 0.408,1.134 1.225,1.134 h 1.259 C -0.101,16.118 0,16.021 0,15.826 Z"
             style="fill:#1d1d1b;fill-opacity:1;fill-rule:nonzero;stroke:none"
             id="path158" />
        </g>
      </g>
    </g>
    <g
       id="g160"
       transform="matrix(0.35277777,0,0,-0.35277777,-68.912569,293.88024)">
      <g
         id="g162"
         clip-path="url(#clipPath166)">
        <g
           id="g168"
           transform="translate(143.9767,780.7198)">
          <path
             d="m 0,0 c 0,-0.15 -0.097,-0.227 -0.285,-0.227 h -2.674 c -0.237,0 -0.439,0.096 -0.607,0.289 l -4.407,5.053 c -0.283,0.33 -0.425,0.655 -0.425,0.973 0,0.331 0.142,0.627 0.425,0.88 l 4.407,3.995 c 0.168,0.152 0.37,0.229 0.607,0.229 h 2.604 c 0.169,0 0.251,-0.077 0.251,-0.229 0,-0.133 -0.037,-0.218 -0.115,-0.266 L -5.512,6.15 -0.142,0.316 C -0.055,0.135 -0.009,0.026 0,0"
             style="fill:#1d1d1b;fill-opacity:1;fill-rule:nonzero;stroke:none"
             id="path170" />
        </g>
      </g>
    </g>
    <g
       id="g172"
       transform="matrix(0.35277777,0,0,-0.35277777,-68.912569,293.88024)">
      <g
         id="g174"
         clip-path="url(#clipPath178)">
        <g
           id="g180"
           transform="translate(216.5289,780.78191)">
          <path
             d="m 0,0 c 0,-0.193 -0.098,-0.289 -0.294,-0.289 h -2.159 c -0.215,0 -0.323,0.096 -0.323,0.289 v 14.984 c 0,0.759 0.409,1.134 1.226,1.134 h 1.256 C -0.098,16.118 0,16.021 0,15.826 Z"
             style="fill:#1d1d1b;fill-opacity:1;fill-rule:nonzero;stroke:none"
             id="path182" />
        </g>
      </g>
    </g>
    <g
       id="g184"
       transform="matrix(0.35277777,0,0,-0.35277777,-68.912569,293.88024)">
      <g
         id="g186"
         clip-path="url(#clipPath190)">
        <g
           id="g192"
           transform="translate(220.9494,780.78191)">
          <path
             d="m 0,0 c 0,-0.193 -0.1,-0.289 -0.291,-0.289 h -2.162 c -0.213,0 -0.323,0.096 -0.323,0.289 v 14.984 c 0,0.759 0.41,1.134 1.23,1.134 h 1.255 C -0.1,16.118 0,16.021 0,15.826 Z"
             style="fill:#1d1d1b;fill-opacity:1;fill-rule:nonzero;stroke:none"
             id="path194" />
        </g>
      </g>
    </g>
    <g
       id="g196"
       transform="matrix(0.35277777,0,0,-0.35277777,-68.912569,293.88024)">
      <g
         id="g198"
         clip-path="url(#clipPath202)">
        <g
           id="g204"
           transform="translate(165.6696,790.0948)">
          <path
             d="m 0,0 c 0,-0.192 -0.114,-0.288 -0.343,-0.288 -0.258,0.026 -1.162,0.043 -2.719,0.043 -1.336,0 -2.009,-0.524 -2.009,-1.564 v -7.492 c 0,-0.205 -0.114,-0.31 -0.343,-0.31 H -7.54 c -0.226,0 -0.338,0.105 -0.338,0.31 v 7.08 c 0,2.771 1.638,4.151 4.932,4.151 1.583,0 2.498,-0.103 2.743,-0.309 C -0.07,1.516 0,1.312 0,1.029 Z"
             style="fill:#1d1d1b;fill-opacity:1;fill-rule:nonzero;stroke:none"
             id="path206" />
        </g>
      </g>
    </g>
    <g
       id="g208"
       transform="matrix(0.35277777,0,0,-0.35277777,-68.912569,293.88024)">
      <g
         id="g210"
         clip-path="url(#clipPath214)">
        <g
           id="g216"
           transform="translate(203.1871,785.1637)">
          <path
             d="m 0,0 c 0,0 2.655,-0.229 5.256,0.124 2.596,0.357 4.131,1.565 4.131,3.368 0,2.243 -1.94,3.369 -5.824,3.369 -2.041,0 -3.547,-0.405 -4.521,-1.21 -1.111,-0.919 -1.667,-2.42 -1.667,-4.5 0,-1.986 0.417,-3.425 1.255,-4.333 0.987,-1.066 2.68,-1.604 5.07,-1.604 2.68,0 4.196,0.12 4.543,0.352 0.278,0.12 0.39,0.361 0.345,0.718 v 1.027 c 0,0.181 -0.114,0.261 -0.345,0.244 L 6.646,-2.525 C 5.58,-2.591 4.734,-2.626 4.11,-2.626 c -2.175,0 -3.427,0.657 -3.746,1.972 -0.214,1.091 -0.206,1.87 -0.206,1.87 v 0.409 c 0,1.205 0.266,2.038 0.791,2.491 C 1.473,4.58 2.412,4.81 3.769,4.81 5.64,4.81 6.578,4.348 6.578,3.431 6.578,2.883 6.319,2.491 5.802,2.26 5.528,2.138 4.88,1.942 4.18,1.868 2.652,1.717 -0.012,1.799 -0.012,1.799 Z"
             style="fill:#1d1d1b;fill-opacity:1;fill-rule:nonzero;stroke:none"
             id="path218" />
        </g>
      </g>
    </g>
    <g
       id="g220"
       transform="matrix(0.35277777,0,0,-0.35277777,-68.912569,293.88024)">
      <g
         id="g222"
         clip-path="url(#clipPath226)">
        <g
           id="g228"
           transform="translate(132.0641,781.3024)">
          <path
             d="m 0,0 c 0.029,-0.544 -0.562,-0.873 -1.758,-0.981 -0.428,-0.039 -1.715,-0.056 -2.777,-0.056 -4.167,0 -6.247,2.03 -6.247,6.1 0,3.733 2.08,5.6 6.247,5.6 1.364,0 2.37,0 2.86,-0.037 0.859,-0.062 1.614,-0.258 1.614,-1.002 V 8.599 c 0,-0.147 -0.081,-0.224 -0.248,-0.224 -0.359,0 -1.804,0.204 -3.209,0.168 -1.476,-0.036 -3.03,-0.244 -3.58,-0.744 -0.554,-0.498 -0.834,-1.407 -0.834,-2.736 0,-1.438 0.244,-2.431 0.725,-2.978 0.554,-0.596 2.144,-0.889 3.689,-0.889 0.605,0 1.283,0.027 2.028,0.09 l 1.12,0.074 c 0.19,0.015 0.297,-0.077 0.309,-0.277 z"
             style="fill:#1d1d1b;fill-opacity:1;fill-rule:nonzero;stroke:none"
             id="path230" />
        </g>
      </g>
    </g>
    <g
       id="g232"
       transform="matrix(0.35277777,0,0,-0.35277777,-68.912569,293.88024)">
      <g
         id="g234"
         clip-path="url(#clipPath238)">
        <g
           id="g240"
           transform="translate(150.174,782.53819)">
          <path
             d="m 0,0 h -0.025 -0.037 -0.036 -0.019 c -1.463,0 -2.47,0.253 -3.032,0.757 -0.556,0.503 -0.834,1.408 -0.834,2.713 0,1.504 0.241,2.513 0.713,3.018 0.512,0.549 1.586,0.824 3.208,0.824 1.625,0 2.697,-0.275 3.212,-0.824 C 3.622,5.983 3.862,4.974 3.862,3.47 3.862,2.165 3.581,1.26 3.025,0.757 2.47,0.253 1.462,0 0,0 m 6.599,3.53 c 0,2.068 -0.371,3.514 -1.118,4.336 -0.976,1.079 -2.774,1.621 -5.414,1.621 -0.042,0 -0.082,0 -0.129,-0.002 -0.037,0.002 -0.084,0.002 -0.125,0.002 -2.634,0 -4.441,-0.542 -5.413,-1.621 -0.749,-0.822 -1.123,-2.268 -1.123,-4.336 0,-3.792 2.111,-5.69 6.329,-5.69 0.114,0 0.223,0 0.332,0.004 0.114,-0.004 0.223,-0.004 0.335,-0.004 1.502,0 2.734,0.243 3.7,0.724 0.171,-0.377 0.532,-0.568 1.095,-0.568 h 1.26 c 0.18,0 0.269,0.087 0.269,0.248 v 5.17 c 0,0.041 0.002,0.08 0.002,0.116"
             style="fill:#1d1d1b;fill-opacity:1;fill-rule:nonzero;stroke:none"
             id="path242" />
        </g>
      </g>
    </g>
    <g
       id="g244"
       transform="matrix(0.35277777,0,0,-0.35277777,-68.912569,293.88024)">
      <g
         id="g246"
         clip-path="url(#clipPath250)">
        <g
           id="g252"
           transform="translate(113.97569,782.53819)">
          <path
             d="m 0,0 h -0.026 -0.032 -0.033 -0.028 c -1.458,0 -2.469,0.253 -3.026,0.757 -0.551,0.503 -0.833,1.408 -0.833,2.713 0,1.504 0.235,2.513 0.709,3.018 0.515,0.549 1.587,0.824 3.211,0.824 1.625,0 2.696,-0.275 3.215,-0.824 C 3.628,5.983 3.861,4.974 3.861,3.47 3.861,2.165 3.583,1.26 3.029,0.757 2.474,0.253 1.464,0 0,0 m 6.605,3.53 c 0,2.068 -0.376,3.514 -1.123,4.336 -0.971,1.079 -2.776,1.621 -5.414,1.621 -0.038,0 -0.085,0 -0.126,-0.002 -0.044,0.002 -0.085,0.002 -0.131,0.002 -2.629,0 -4.436,-0.542 -5.412,-1.621 -0.743,-0.822 -1.118,-2.268 -1.118,-4.336 0,-3.792 2.11,-5.69 6.328,-5.69 0.112,0 0.223,0 0.333,0.004 0.108,-0.004 0.221,-0.004 0.333,-0.004 1.502,0 2.733,0.243 3.699,0.724 0.173,-0.377 0.537,-0.568 1.098,-0.568 h 1.255 c 0.185,0 0.274,0.087 0.274,0.248 v 5.17 c 0,0.041 0.004,0.08 0.004,0.116"
             style="fill:#1d1d1b;fill-opacity:1;fill-rule:nonzero;stroke:none"
             id="path254" />
        </g>
      </g>
    </g>
    <g
       id="g256"
       transform="matrix(0.35277777,0,0,-0.35277777,-68.912569,293.88024)">
      <g
         id="g258"
         clip-path="url(#clipPath262)">
        <g
           id="g264"
           transform="translate(196.382,783.3634)">
          <path
             d="m 0,0 c -0.538,-0.543 -1.64,-0.819 -3.32,-0.822 -1.679,0.003 -2.789,0.279 -3.323,0.822 -0.485,0.508 -0.731,1.516 -0.731,3.024 0,1.305 0.289,2.207 0.864,2.714 0.571,0.507 1.615,0.762 3.129,0.762 h 0.125 c 1.51,0 2.553,-0.255 3.126,-0.762 C 0.445,5.231 0.728,4.329 0.728,3.024 0.728,1.516 0.49,0.508 0,0 m -2.977,8.657 h -0.69 c -1.549,0 -2.818,-0.239 -3.82,-0.719 v 4.421 c 0,0.808 -0.402,1.215 -1.206,1.215 h -1.196 c -0.218,0 -0.325,-0.097 -0.325,-0.287 V 7.756 h 0.008 V 3.08 c 0,-0.037 -0.004,-0.078 -0.004,-0.119 0,-2.068 0.388,-3.514 1.158,-4.336 1.009,-1.08 2.877,-1.624 5.604,-1.624 h 0.128 0.131 c 2.726,0 4.588,0.544 5.597,1.624 0.772,0.822 1.16,2.268 1.16,4.336 0,3.801 -2.183,5.696 -6.545,5.696"
             style="fill:#1d1d1b;fill-opacity:1;fill-rule:nonzero;stroke:none"
             id="path266" />
        </g>
      </g>
    </g>
    <g
       id="g268"
       transform="matrix(0.35277777,0,0,-0.35277777,-68.912569,293.88024)">
      <g
         id="g270"
         clip-path="url(#clipPath274)">
        <g
           id="g276"
           transform="translate(168.1525,786.3878)">
          <path
             d="M 0,0 C 0,1.304 0.289,2.206 0.865,2.713 1.44,3.221 2.482,3.476 3.992,3.476 H 4.115 C 5.626,3.476 6.67,3.221 7.244,2.713 7.819,2.206 8.108,1.304 8.108,0 8.108,-1.509 7.866,-2.517 7.379,-3.024 6.838,-3.567 5.733,-3.843 4.055,-3.846 2.375,-3.843 1.268,-3.567 0.734,-3.024 0.246,-2.517 0,-1.509 0,0 m -2.835,-0.063 c 0,-2.069 0.391,-3.515 1.159,-4.336 1.012,-1.081 2.872,-1.624 5.601,-1.624 h 0.13 0.131 c 2.726,0 4.592,0.543 5.601,1.624 0.768,0.821 1.154,2.267 1.154,4.336 0,0.041 -0.003,0.082 -0.003,0.118 v 4.676 h 0.012 v 5.532 c 0,0.189 -0.111,0.286 -0.322,0.286 H 9.429 c -0.804,0 -1.211,-0.406 -1.211,-1.214 V 4.915 C 7.22,5.394 5.948,5.633 4.403,5.633 H 3.708 c -4.356,0 -6.543,-1.895 -6.543,-5.696"
             style="fill:#1d1d1b;fill-opacity:1;fill-rule:nonzero;stroke:none"
             id="path278" />
        </g>
      </g>
    </g>
    <g
       id="g280"
       transform="matrix(0.35277777,0,0,-0.35277777,-68.912569,293.88024)">
      <g
         id="g282"
         clip-path="url(#clipPath286)">
        <g
           id="g288"
           transform="translate(102.7028,783.3131)">
          <path
             d="m 0,0 c -0.579,-0.508 -1.623,-0.762 -3.133,-0.762 h -0.123 c -1.51,0 -2.554,0.254 -3.129,0.762 -0.572,0.502 -0.861,1.407 -0.861,2.714 0,1.506 0.245,2.516 0.731,3.02 0.536,0.549 1.643,0.82 3.324,0.82 1.675,0 2.785,-0.271 3.318,-0.82 C 0.614,5.23 0.859,4.22 0.859,2.714 0.859,1.407 0.571,0.502 0,0 m 2.536,7.115 c -1.013,1.078 -2.872,1.62 -5.598,1.62 h -0.129 -0.134 c -2.726,0 -4.591,-0.542 -5.6,-1.62 -0.771,-0.827 -1.156,-2.27 -1.156,-4.342 0,-0.039 0.003,-0.079 0.003,-0.117 h -0.003 l -0.003,-10.209 c 0,-0.186 0.105,-0.28 0.321,-0.28 h 1.197 c 0.806,0 1.208,0.404 1.208,1.208 l -0.007,4.429 c 0.999,-0.486 2.275,-0.727 3.827,-0.727 h 0.689 c 4.362,0 6.54,1.899 6.54,5.696 0,2.072 -0.384,3.515 -1.155,4.342"
             style="fill:#1d1d1b;fill-opacity:1;fill-rule:nonzero;stroke:none"
             id="path290" />
        </g>
      </g>
    </g>
    <g
       id="g292"
       transform="matrix(0.35277777,0,0,-0.35277777,-68.912569,293.88024)">
      <g
         id="g294"
         clip-path="url(#clipPath298)">
        <g
           id="g300"
           transform="translate(223.1198,781.89709)">
          <path
             d="m 0,0 h -0.145 v 0.383 c 0.032,0.008 0.089,0.015 0.171,0.015 0.196,0 0.286,-0.081 0.286,-0.204 C 0.312,0.055 0.173,0 0,0 m 0.369,-0.099 v 0.016 c 0.155,0.049 0.275,0.156 0.275,0.318 0,0.131 -0.056,0.229 -0.136,0.286 -0.092,0.064 -0.206,0.106 -0.458,0.106 -0.221,0 -0.391,-0.025 -0.515,-0.042 v -1.336 h 0.31 v 0.529 h 0.148 c 0.169,0 0.253,-0.066 0.278,-0.204 0.041,-0.162 0.066,-0.277 0.106,-0.325 H 0.701 C 0.679,-0.703 0.644,-0.63 0.604,-0.426 0.563,-0.245 0.498,-0.141 0.369,-0.099 M 0.064,-1.127 c -0.594,0 -1.043,0.473 -1.043,1.068 0,0.588 0.449,1.07 1.029,1.07 h 0.007 c 0.587,0 1.03,-0.482 1.03,-1.077 0,-0.588 -0.443,-1.069 -1.023,-1.061 m 0,2.407 H 0.057 c -0.764,0 -1.377,-0.588 -1.377,-1.339 0,-0.749 0.613,-1.346 1.377,-1.346 0.768,0 1.371,0.597 1.371,1.346 0,0.751 -0.603,1.339 -1.364,1.339"
             style="fill:#1c1c20;fill-opacity:1;fill-rule:nonzero;stroke:none"
             id="path302" />
        </g>
      </g>
    </g>
  </g>
</svg>
